<svg width="32" height="32" viewBox="0 0 32 32" fill="none" xmlns="http://www.w3.org/2000/svg">
<path fill-rule="evenodd" clip-rule="evenodd" d="M19.9154 19.9731C19.9251 23.0544 22.4243 25.5459 25.5037 25.5459C28.608 25.5363 31.1034 23.0275 31.0938 19.9404C31.0938 19.9308 31.0342 0.957078 31.0342 0.957078C31.0342 0.653559 30.8901 0.36925 30.6462 0.188676C30.4003 0.0061806 30.0833 -0.0456864 29.7952 0.0407588L10.8099 5.79801C10.4046 5.92095 10.1279 6.29555 10.1279 6.72009L10.1702 21.4926C9.1924 20.6512 7.93607 20.1249 6.54718 20.1249C3.44284 20.1345 0.947454 22.6433 0.957059 25.7303C0.964743 28.8116 3.46589 31.3032 6.54526 31.3032C9.6496 31.2955 12.145 28.7847 12.1354 25.6977C12.1354 25.594 12.1085 25.496 12.1027 25.3942L12.0643 12.047L29.1305 6.87185L29.1574 15.7565C28.1758 14.9016 26.9079 14.3676 25.5056 14.3676C22.4012 14.3772 19.9058 16.886 19.9154 19.9731Z" fill="#C73D3D"/>
</svg>
