<svg width="20" height="17" viewBox="0 0 20 17" fill="none" xmlns="http://www.w3.org/2000/svg">
<path d="M14.1072 5.2703C13.7023 4.94646 13.0951 4.98694 12.751 5.41199C12.407 5.83704 12.4879 6.44425 12.913 6.78833C13.4595 7.23362 13.8035 7.9218 13.8035 8.67069C13.8035 9.4803 13.419 10.1887 12.8118 10.634C12.4272 10.9174 12.3665 11.4841 12.6701 11.8484L12.751 11.9294C13.0749 12.314 13.6821 12.3949 14.0667 12.0913C15.0787 11.3019 15.7264 10.047 15.7264 8.67069C15.7264 7.29434 15.0989 6.07992 14.1072 5.2703Z" fill="white"/>
<path d="M16.3137 2.55826C15.9089 2.23441 15.3219 2.31537 14.9779 2.69994C14.654 3.10475 14.6945 3.71196 15.0993 4.03581C16.4352 5.14903 17.3055 6.80874 17.3055 8.67086C17.3055 10.533 16.4352 12.2129 15.0993 13.3059C14.6945 13.6297 14.654 14.237 14.9779 14.6418C15.3017 15.0466 15.9089 15.1275 16.3137 14.8037C18.0949 13.3666 19.2486 11.1604 19.2486 8.6911C19.2283 6.20153 18.0949 3.99533 16.3137 2.55826Z" fill="white"/>
<path d="M8.46048 1.08077L3.54207 4.86573H1.13346C0.50601 4.86573 0 5.37174 0 5.99919V11.3426C0 11.9701 0.50601 12.4761 1.13346 12.4761H3.54207L8.48072 16.2611C9.35106 16.929 10.5857 16.3218 10.5857 15.2086V2.11303C10.5857 1.04029 9.33082 0.412841 8.46048 1.08077Z" fill="white"/>
</svg>
